<svg id="visual" viewBox="0 0 960 300" width="960" height="300" xmlns="http://www.w3.org/2000/svg" xmlns:xlink="http://www.w3.org/1999/xlink" version="1.1"><rect x="0" y="0" width="960" height="300" fill="#205295"></rect><path d="M0 258L22.8 255.2C45.7 252.3 91.3 246.7 137 246C182.7 245.3 228.3 249.7 274 241C319.7 232.3 365.3 210.7 411.2 205C457 199.3 503 209.7 548.8 215C594.7 220.3 640.3 220.7 686 222.7C731.7 224.7 777.3 228.3 823 222.8C868.7 217.3 914.3 202.7 937.2 195.3L960 188L960 301L937.2 301C914.3 301 868.7 301 823 301C777.3 301 731.7 301 686 301C640.3 301 594.7 301 548.8 301C503 301 457 301 411.2 301C365.3 301 319.7 301 274 301C228.3 301 182.7 301 137 301C91.3 301 45.7 301 22.8 301L0 301Z" fill="#144272" stroke-linecap="round" stroke-linejoin="miter"></path></svg>