<svg id="visual" viewBox="0 0 960 300" width="960" height="300" xmlns="http://www.w3.org/2000/svg" xmlns:xlink="http://www.w3.org/1999/xlink" version="1.1"><rect x="0" y="0" width="960" height="300" fill="#081D36"></rect><path d="M0 256L22.8 253.3C45.7 250.7 91.3 245.3 137 243.3C182.7 241.3 228.3 242.7 274 243.8C319.7 245 365.3 246 411.2 239.8C457 233.7 503 220.3 548.8 212.7C594.7 205 640.3 203 686 207C731.7 211 777.3 221 823 228C868.7 235 914.3 239 937.2 241L960 243L960 301L937.2 301C914.3 301 868.7 301 823 301C777.3 301 731.7 301 686 301C640.3 301 594.7 301 548.8 301C503 301 457 301 411.2 301C365.3 301 319.7 301 274 301C228.3 301 182.7 301 137 301C91.3 301 45.7 301 22.8 301L0 301Z" fill="#051323" stroke-linecap="round" stroke-linejoin="miter"></path></svg>