<svg id="visual" viewBox="0 0 480 300" width="480" height="300" xmlns="http://www.w3.org/2000/svg" xmlns:xlink="http://www.w3.org/1999/xlink" version="1.1"><rect x="0" y="0" width="480" height="300" fill="#202731"></rect><path d="M0 120L11.5 113.8C23 107.7 46 95.3 68.8 93.8C91.7 92.3 114.3 101.7 137.2 108.2C160 114.7 183 118.3 205.8 119.5C228.7 120.7 251.3 119.3 274.2 115.7C297 112 320 106 342.8 101.8C365.7 97.7 388.3 95.3 411.2 99.2C434 103 457 113 468.5 118L480 123L480 0L468.5 0C457 0 434 0 411.2 0C388.3 0 365.7 0 342.8 0C320 0 297 0 274.2 0C251.3 0 228.7 0 205.8 0C183 0 160 0 137.2 0C114.3 0 91.7 0 68.8 0C46 0 23 0 11.5 0L0 0Z" fill="#379392"></path><path d="M0 79L11.5 76.5C23 74 46 69 68.8 71C91.7 73 114.3 82 137.2 87C160 92 183 93 205.8 93C228.7 93 251.3 92 274.2 91.8C297 91.7 320 92.3 342.8 91.2C365.7 90 388.3 87 411.2 83.2C434 79.3 457 74.7 468.5 72.3L480 70L480 0L468.5 0C457 0 434 0 411.2 0C388.3 0 365.7 0 342.8 0C320 0 297 0 274.2 0C251.3 0 228.7 0 205.8 0C183 0 160 0 137.2 0C114.3 0 91.7 0 68.8 0C46 0 23 0 11.5 0L0 0Z" fill="#008cb7"></path><path d="M0 51L11.5 53C23 55 46 59 68.8 62.2C91.7 65.3 114.3 67.7 137.2 68.5C160 69.3 183 68.7 205.8 66.8C228.7 65 251.3 62 274.2 62.2C297 62.3 320 65.7 342.8 67.2C365.7 68.7 388.3 68.3 411.2 65.7C434 63 457 58 468.5 55.5L480 53L480 0L468.5 0C457 0 434 0 411.2 0C388.3 0 365.7 0 342.8 0C320 0 297 0 274.2 0C251.3 0 228.7 0 205.8 0C183 0 160 0 137.2 0C114.3 0 91.7 0 68.8 0C46 0 23 0 11.5 0L0 0Z" fill="#007bd2"></path><path d="M0 49L11.5 47.8C23 46.7 46 44.3 68.8 41.7C91.7 39 114.3 36 137.2 37.3C160 38.7 183 44.3 205.8 45C228.7 45.7 251.3 41.3 274.2 38C297 34.7 320 32.3 342.8 34C365.7 35.7 388.3 41.3 411.2 41.3C434 41.3 457 35.7 468.5 32.8L480 30L480 0L468.5 0C457 0 434 0 411.2 0C388.3 0 365.7 0 342.8 0C320 0 297 0 274.2 0C251.3 0 228.7 0 205.8 0C183 0 160 0 137.2 0C114.3 0 91.7 0 68.8 0C46 0 23 0 11.5 0L0 0Z" fill="#005edf"></path><path d="M0 20L11.5 19.5C23 19 46 18 68.8 17.8C91.7 17.7 114.3 18.3 137.2 19C160 19.7 183 20.3 205.8 21C228.7 21.7 251.3 22.3 274.2 24.5C297 26.7 320 30.3 342.8 31.2C365.7 32 388.3 30 411.2 26.8C434 23.7 457 19.3 468.5 17.2L480 15L480 0L468.5 0C457 0 434 0 411.2 0C388.3 0 365.7 0 342.8 0C320 0 297 0 274.2 0C251.3 0 228.7 0 205.8 0C183 0 160 0 137.2 0C114.3 0 91.7 0 68.8 0C46 0 23 0 11.5 0L0 0Z" fill="#3c31dd"></path></svg>