<svg id="visual" viewBox="0 0 960 300" width="960" height="300" xmlns="http://www.w3.org/2000/svg" xmlns:xlink="http://www.w3.org/1999/xlink" version="1.1"><rect x="0" y="0" width="960" height="300" fill="#144272"></rect><path d="M0 242L22.8 235.5C45.7 229 91.3 216 137 217.5C182.7 219 228.3 235 274 241C319.7 247 365.3 243 411.2 235.3C457 227.7 503 216.3 548.8 208.5C594.7 200.7 640.3 196.3 686 203.5C731.7 210.7 777.3 229.3 823 231.7C868.7 234 914.3 220 937.2 213L960 206L960 301L937.2 301C914.3 301 868.7 301 823 301C777.3 301 731.7 301 686 301C640.3 301 594.7 301 548.8 301C503 301 457 301 411.2 301C365.3 301 319.7 301 274 301C228.3 301 182.7 301 137 301C91.3 301 45.7 301 22.8 301L0 301Z" fill="#0A2647" stroke-linecap="round" stroke-linejoin="miter"></path></svg>